<svg xmlns="http://www.w3.org/2000/svg" width="1000" height="390" viewBox="0 0 1000 390" data-palette="5673e6-936ae7-acd6f6-2afc8ff24a53" role="img" aria-labelledby="hero-light-title hero-light-desc"><title id="hero-light-title">OmitLedger</title><desc id="hero-light-desc">Keep a reason for omitted work.</desc><defs><linearGradient id="brand" gradientUnits="userSpaceOnUse" x2="1000" y2="390"><stop stop-color="#4f69d2"/><stop offset=".6" stop-color="#805cc8"/><stop offset="1" stop-color="#5d7385"/></linearGradient><radialGradient id="halo"><stop stop-color="#4f69d2" stop-opacity=".22"/><stop offset="1" stop-color="#f9fafe" stop-opacity="0"/></radialGradient><filter id="glow"><feGaussianBlur stdDeviation="5"/></filter><pattern id="grid" width="40" height="40" patternUnits="userSpaceOnUse"><path d="M40 0H0V40" fill="none" stroke="#cbd4f7" stroke-opacity=".35" stroke-width=".6"/></pattern><marker id="arrow" viewBox="0 0 10 10" refX="8" refY="5" markerWidth="5" markerHeight="5" orient="auto"><path d="m1 1 7 4-7 4" fill="none" stroke="#4f69d2" stroke-width="1.5"/></marker></defs><style>text{font-family:Arial,"Noto Sans",sans-serif}.flow{stroke-dasharray:10 110;animation:flow 6s linear infinite}.pulse{animation:pulse 5s ease-in-out infinite}.turn{transform-box:fill-box;transform-origin:center;animation:turn 36s linear infinite}@keyframes flow{to{stroke-dashoffset:-360}}@keyframes pulse{0%,100%{opacity:.45}50%{opacity:1}}@keyframes turn{to{transform:rotate(360deg)}}@media(prefers-reduced-motion:reduce){*{animation:none!important;transform:none!important}.flow{display:none}}</style><rect width="1000" height="390" rx="16" fill="#f9fafe"/><rect width="1000" height="390" rx="16" fill="url(#grid)"/><ellipse cx="630.0" cy="167.7" rx="500.0" ry="273.0" fill="url(#halo)"/><circle cx="698.42" cy="49.32" r="1.41" fill="#805cc8" opacity="0.31"/><circle cx="756.84" cy="427.03" r="1.53" fill="#4f69d2" opacity="0.30"/><circle cx="753.99" cy="141.42" r="1.02" fill="#4f69d2" opacity="0.39"/><circle cx="1061.60" cy="311.86" r="1.35" fill="#805cc8" opacity="0.49"/><circle cx="1019.57" cy="110.96" r="1.38" fill="#4f69d2" opacity="0.80"/><circle cx="696.49" cy="91.46" r="0.68" fill="#4f69d2" opacity="0.45"/><circle cx="826.29" cy="285.30" r="1.64" fill="#805cc8" opacity="0.39"/><circle cx="708.96" cy="259.39" r="1.09" fill="#4f69d2" opacity="0.24"/><circle cx="826.35" cy="196.35" r="0.91" fill="#4f69d2" opacity="0.79"/><circle cx="808.26" cy="22.98" r="1.52" fill="#805cc8" opacity="0.52"/><circle cx="769.56" cy="106.85" r="0.85" fill="#4f69d2" opacity="0.38"/><circle cx="1079.04" cy="247.70" r="1.40" fill="#4f69d2" opacity="0.42"/><circle cx="593.74" cy="144.20" r="1.50" fill="#805cc8" opacity="0.37"/><circle cx="850.76" cy="382.25" r="1.59" fill="#4f69d2" opacity="0.52"/><circle cx="915.73" cy="113.27" r="1.64" fill="#4f69d2" opacity="0.73"/><circle cx="678.08" cy="389.68" r="0.78" fill="#805cc8" opacity="0.48"/><circle cx="1082.90" cy="198.52" r="1.58" fill="#4f69d2" opacity="0.63"/><circle cx="966.86" cy="325.60" r="0.94" fill="#4f69d2" opacity="0.73"/><circle cx="960.14" cy="102.24" r="0.97" fill="#805cc8" opacity="0.52"/><circle cx="1032.60" cy="301.79" r="0.99" fill="#4f69d2" opacity="0.21"/><circle cx="723.28" cy="94.07" r="0.63" fill="#4f69d2" opacity="0.45"/><circle cx="738.63" cy="423.07" r="1.10" fill="#805cc8" opacity="0.37"/><circle cx="998.53" cy="298.62" r="0.76" fill="#4f69d2" opacity="0.36"/><circle cx="1036.59" cy="227.92" r="1.59" fill="#4f69d2" opacity="0.77"/><circle cx="1024.42" cy="227.33" r="0.76" fill="#805cc8" opacity="0.50"/><circle cx="888.27" cy="302.67" r="0.75" fill="#4f69d2" opacity="0.44"/><circle cx="644.38" cy="289.59" r="1.05" fill="#4f69d2" opacity="0.35"/><circle cx="635.24" cy="360.66" r="1.45" fill="#805cc8" opacity="0.73"/><circle cx="670.69" cy="167.36" r="0.71" fill="#4f69d2" opacity="0.38"/><circle cx="866.12" cy="39.36" r="1.15" fill="#4f69d2" opacity="0.59"/><circle cx="769.35" cy="45.46" r="1.66" fill="#805cc8" opacity="0.28"/><circle cx="788.79" cy="18.51" r="0.63" fill="#4f69d2" opacity="0.60"/><circle cx="808.82" cy="132.99" r="1.22" fill="#4f69d2" opacity="0.78"/><circle cx="661.65" cy="232.92" r="1.47" fill="#805cc8" opacity="0.31"/><circle cx="951.01" cy="96.32" r="1.27" fill="#4f69d2" opacity="0.38"/><circle cx="988.95" cy="94.37" r="0.87" fill="#4f69d2" opacity="0.71"/><circle cx="661.61" cy="61.66" r="1.30" fill="#805cc8" opacity="0.40"/><circle cx="819.65" cy="62.45" r="0.60" fill="#4f69d2" opacity="0.42"/><circle cx="751.66" cy="415.82" r="1.31" fill="#4f69d2" opacity="0.42"/><circle cx="1005.54" cy="165.79" r="0.93" fill="#805cc8" opacity="0.58"/><circle cx="792.59" cy="23.82" r="0.70" fill="#4f69d2" opacity="0.51"/><circle cx="712.90" cy="382.68" r="0.97" fill="#4f69d2" opacity="0.26"/><circle cx="619.77" cy="97.19" r="1.00" fill="#805cc8" opacity="0.75"/><circle cx="918.03" cy="28.97" r="1.49" fill="#4f69d2" opacity="0.61"/><circle cx="940.46" cy="39.85" r="1.61" fill="#4f69d2" opacity="0.69"/><circle cx="632.65" cy="243.52" r="0.78" fill="#805cc8" opacity="0.67"/><circle cx="851.24" cy="259.57" r="0.87" fill="#4f69d2" opacity="0.33"/><circle cx="1018.03" cy="165.24" r="1.08" fill="#4f69d2" opacity="0.36"/><circle cx="691.51" cy="321.59" r="1.59" fill="#805cc8" opacity="0.74"/><circle cx="1017.40" cy="319.44" r="1.32" fill="#4f69d2" opacity="0.36"/><circle cx="599.91" cy="315.65" r="1.06" fill="#4f69d2" opacity="0.38"/><circle cx="638.44" cy="245.47" r="1.01" fill="#805cc8" opacity="0.44"/><circle cx="714.67" cy="158.74" r="0.99" fill="#4f69d2" opacity="0.70"/><circle cx="812.20" cy="175.87" r="0.88" fill="#4f69d2" opacity="0.27"/><circle cx="869.88" cy="25.78" r="0.78" fill="#805cc8" opacity="0.77"/><circle cx="1059.22" cy="175.97" r="1.47" fill="#4f69d2" opacity="0.51"/><circle cx="834.08" cy="163.54" r="1.54" fill="#4f69d2" opacity="0.72"/><circle cx="952.66" cy="57.62" r="1.31" fill="#805cc8" opacity="0.58"/><circle cx="981.96" cy="365.21" r="1.39" fill="#4f69d2" opacity="0.28"/><circle cx="726.35" cy="414.99" r="1.05" fill="#4f69d2" opacity="0.45"/><circle cx="1073.63" cy="215.48" r="1.05" fill="#805cc8" opacity="0.28"/><circle cx="775.48" cy="99.08" r="0.66" fill="#4f69d2" opacity="0.45"/><circle cx="657.05" cy="235.93" r="0.93" fill="#4f69d2" opacity="0.53"/><circle cx="619.81" cy="96.05" r="1.34" fill="#805cc8" opacity="0.39"/><circle cx="821.77" cy="85.71" r="1.60" fill="#4f69d2" opacity="0.77"/><circle cx="959.26" cy="45.17" r="0.99" fill="#4f69d2" opacity="0.33"/><circle cx="630.10" cy="280.89" r="1.06" fill="#805cc8" opacity="0.42"/><circle cx="916.92" cy="420.99" r="1.45" fill="#4f69d2" opacity="0.51"/><circle cx="688.51" cy="352.80" r="0.78" fill="#4f69d2" opacity="0.21"/><circle cx="654.82" cy="163.97" r="0.71" fill="#805cc8" opacity="0.77"/><circle cx="900.23" cy="179.91" r="0.99" fill="#4f69d2" opacity="0.39"/><circle cx="622.79" cy="326.98" r="1.19" fill="#4f69d2" opacity="0.23"/><circle cx="767.26" cy="249.03" r="0.70" fill="#805cc8" opacity="0.42"/><circle cx="1029.14" cy="284.58" r="0.61" fill="#4f69d2" opacity="0.20"/><circle cx="957.58" cy="251.44" r="1.69" fill="#4f69d2" opacity="0.67"/><circle cx="752.18" cy="413.58" r="1.58" fill="#805cc8" opacity="0.42"/><circle cx="1080.48" cy="243.74" r="0.80" fill="#4f69d2" opacity="0.80"/><circle cx="674.02" cy="141.18" r="0.84" fill="#4f69d2" opacity="0.63"/><circle cx="959.29" cy="54.48" r="0.99" fill="#805cc8" opacity="0.36"/><circle cx="883.86" cy="420.09" r="0.73" fill="#4f69d2" opacity="0.23"/><circle cx="1065.27" cy="211.81" r="1.08" fill="#4f69d2" opacity="0.26"/><circle cx="927.18" cy="173.42" r="0.74" fill="#805cc8" opacity="0.73"/><circle cx="788.09" cy="349.20" r="1.57" fill="#4f69d2" opacity="0.59"/><circle cx="574.42" cy="245.61" r="1.60" fill="#4f69d2" opacity="0.62"/><circle cx="567.81" cy="254.84" r="0.72" fill="#805cc8" opacity="0.46"/><circle cx="692.70" cy="312.30" r="1.37" fill="#4f69d2" opacity="0.60"/><circle cx="885.27" cy="70.34" r="1.62" fill="#4f69d2" opacity="0.51"/><circle cx="677.77" cy="58.32" r="1.28" fill="#805cc8" opacity="0.34"/><circle cx="988.91" cy="141.43" r="1.66" fill="#4f69d2" opacity="0.69"/><circle cx="710.00" cy="170.79" r="1.29" fill="#4f69d2" opacity="0.67"/><circle cx="747.92" cy="105.77" r="0.64" fill="#805cc8" opacity="0.74"/><circle cx="806.34" cy="278.47" r="0.91" fill="#4f69d2" opacity="0.72"/><circle cx="718.85" cy="220.38" r="1.43" fill="#4f69d2" opacity="0.35"/><circle cx="871.53" cy="131.32" r="0.87" fill="#805cc8" opacity="0.43"/><circle cx="869.20" cy="18.67" r="1.38" fill="#4f69d2" opacity="0.31"/><circle cx="706.83" cy="46.17" r="0.72" fill="#4f69d2" opacity="0.43"/><circle cx="835.71" cy="36.45" r="1.20" fill="#805cc8" opacity="0.70"/><circle cx="915.93" cy="128.14" r="1.62" fill="#4f69d2" opacity="0.54"/><circle cx="964.18" cy="402.37" r="0.65" fill="#4f69d2" opacity="0.46"/><circle cx="839.45" cy="300.72" r="1.11" fill="#805cc8" opacity="0.62"/><circle cx="940.03" cy="252.43" r="0.77" fill="#4f69d2" opacity="0.64"/><circle cx="712.35" cy="42.06" r="1.17" fill="#4f69d2" opacity="0.42"/><circle cx="838.01" cy="392.03" r="0.65" fill="#805cc8" opacity="0.39"/><circle cx="781.07" cy="76.02" r="0.64" fill="#4f69d2" opacity="0.62"/><circle cx="779.94" cy="430.52" r="1.19" fill="#4f69d2" opacity="0.56"/><circle cx="600.56" cy="120.29" r="0.73" fill="#805cc8" opacity="0.28"/><circle cx="1069.11" cy="247.50" r="0.78" fill="#4f69d2" opacity="0.30"/><circle cx="742.59" cy="389.53" r="0.71" fill="#4f69d2" opacity="0.29"/><circle cx="590.18" cy="145.14" r="1.44" fill="#805cc8" opacity="0.67"/><circle cx="913.72" cy="376.85" r="1.36" fill="#4f69d2" opacity="0.48"/><circle cx="1066.14" cy="172.45" r="0.95" fill="#4f69d2" opacity="0.69"/><circle cx="815.93" cy="88.92" r="1.22" fill="#805cc8" opacity="0.58"/><circle cx="651.51" cy="114.76" r="1.67" fill="#4f69d2" opacity="0.30"/><circle cx="901.36" cy="25.12" r="1.42" fill="#4f69d2" opacity="0.42"/><circle cx="652.66" cy="316.26" r="1.08" fill="#805cc8" opacity="0.40"/><circle cx="891.57" cy="416.83" r="1.03" fill="#4f69d2" opacity="0.43"/><circle cx="1025.76" cy="140.72" r="0.76" fill="#4f69d2" opacity="0.40"/><circle cx="762.40" cy="403.77" r="0.72" fill="#805cc8" opacity="0.71"/><circle cx="873.59" cy="216.48" r="1.01" fill="#4f69d2" opacity="0.21"/><circle cx="898.84" cy="423.92" r="1.51" fill="#4f69d2" opacity="0.50"/><circle cx="790.47" cy="322.63" r="0.80" fill="#805cc8" opacity="0.48"/><circle cx="657.59" cy="259.72" r="0.90" fill="#4f69d2" opacity="0.56"/><circle cx="702.74" cy="199.49" r="0.67" fill="#4f69d2" opacity="0.76"/><circle cx="1065.65" cy="208.13" r="1.52" fill="#805cc8" opacity="0.38"/><circle cx="669.72" cy="64.62" r="0.91" fill="#4f69d2" opacity="0.65"/><circle cx="746.81" cy="147.73" r="0.80" fill="#4f69d2" opacity="0.71"/><circle cx="962.42" cy="68.93" r="0.85" fill="#805cc8" opacity="0.50"/><circle cx="657.59" cy="283.98" r="0.89" fill="#4f69d2" opacity="0.29"/><circle cx="970.03" cy="230.40" r="1.32" fill="#4f69d2" opacity="0.54"/><circle cx="1061.33" cy="186.10" r="1.19" fill="#805cc8" opacity="0.59"/><circle cx="871.18" cy="385.28" r="1.30" fill="#4f69d2" opacity="0.71"/><circle cx="1050.36" cy="269.13" r="1.46" fill="#4f69d2" opacity="0.50"/><circle cx="705.99" cy="231.31" r="1.00" fill="#805cc8" opacity="0.29"/><circle cx="907.46" cy="224.66" r="1.16" fill="#4f69d2" opacity="0.32"/><circle cx="893.50" cy="30.49" r="0.61" fill="#4f69d2" opacity="0.35"/><circle cx="877.89" cy="244.09" r="0.76" fill="#805cc8" opacity="0.46"/><circle cx="623.00" cy="208.23" r="0.74" fill="#4f69d2" opacity="0.25"/><circle cx="769.93" cy="429.70" r="0.85" fill="#4f69d2" opacity="0.23"/><circle cx="1008.56" cy="145.37" r="1.15" fill="#805cc8" opacity="0.24"/><circle cx="1005.44" cy="375.12" r="1.22" fill="#4f69d2" opacity="0.33"/><circle cx="920.41" cy="384.48" r="0.96" fill="#4f69d2" opacity="0.33"/><circle cx="1010.68" cy="88.37" r="1.50" fill="#805cc8" opacity="0.39"/><circle cx="1034.23" cy="276.39" r="0.99" fill="#4f69d2" opacity="0.60"/><circle cx="641.35" cy="124.10" r="1.50" fill="#4f69d2" opacity="0.69"/><circle cx="951.43" cy="212.98" r="1.56" fill="#805cc8" opacity="0.71"/><circle cx="978.47" cy="283.60" r="0.63" fill="#4f69d2" opacity="0.76"/><circle cx="872.63" cy="382.37" r="1.29" fill="#4f69d2" opacity="0.67"/><circle cx="948.18" cy="318.18" r="1.19" fill="#805cc8" opacity="0.32"/><circle cx="579.82" cy="251.79" r="0.60" fill="#4f69d2" opacity="0.70"/><circle cx="821.04" cy="49.78" r="1.70" fill="#4f69d2" opacity="0.59"/><circle cx="577.44" cy="262.55" r="1.29" fill="#805cc8" opacity="0.58"/><circle cx="700.43" cy="280.22" r="0.65" fill="#4f69d2" opacity="0.41"/><circle cx="663.90" cy="60.57" r="1.67" fill="#4f69d2" opacity="0.43"/><circle cx="760.35" cy="194.92" r="0.81" fill="#805cc8" opacity="0.67"/><circle cx="793.10" cy="23.40" r="0.63" fill="#4f69d2" opacity="0.27"/><circle cx="791.04" cy="243.61" r="1.07" fill="#4f69d2" opacity="0.26"/><circle cx="610.82" cy="106.51" r="1.37" fill="#805cc8" opacity="0.52"/><circle cx="607.54" cy="265.63" r="1.15" fill="#4f69d2" opacity="0.73"/><circle cx="1032.41" cy="258.72" r="0.68" fill="#4f69d2" opacity="0.40"/><circle cx="798.68" cy="342.33" r="0.70" fill="#805cc8" opacity="0.69"/><circle cx="1082.75" cy="215.60" r="1.70" fill="#4f69d2" opacity="0.29"/><circle cx="574.72" cy="245.55" r="0.94" fill="#4f69d2" opacity="0.67"/><circle cx="635.94" cy="319.10" r="0.77" fill="#805cc8" opacity="0.60"/><circle cx="575.41" cy="283.71" r="0.83" fill="#4f69d2" opacity="0.65"/><circle cx="785.41" cy="137.12" r="1.44" fill="#4f69d2" opacity="0.23"/><circle cx="881.10" cy="144.18" r="1.06" fill="#805cc8" opacity="0.38"/><circle cx="592.69" cy="303.02" r="1.33" fill="#4f69d2" opacity="0.79"/><circle cx="1006.82" cy="306.03" r="1.16" fill="#4f69d2" opacity="0.64"/><circle cx="634.65" cy="359.80" r="1.22" fill="#805cc8" opacity="0.34"/><circle cx="755.15" cy="68.82" r="0.83" fill="#4f69d2" opacity="0.57"/><circle cx="656.27" cy="383.08" r="1.70" fill="#4f69d2" opacity="0.32"/><circle cx="808.12" cy="348.37" r="1.24" fill="#805cc8" opacity="0.68"/><circle cx="749.54" cy="157.70" r="1.53" fill="#4f69d2" opacity="0.47"/><circle cx="621.42" cy="129.00" r="1.27" fill="#4f69d2" opacity="0.66"/><circle cx="930.31" cy="99.18" r="1.02" fill="#805cc8" opacity="0.77"/><circle cx="964.55" cy="284.41" r="1.29" fill="#4f69d2" opacity="0.29"/><circle cx="584.44" cy="156.55" r="1.00" fill="#4f69d2" opacity="0.63"/><circle cx="910.69" cy="393.33" r="1.25" fill="#805cc8" opacity="0.21"/><circle cx="680.78" cy="138.39" r="0.62" fill="#4f69d2" opacity="0.66"/><circle cx="647.56" cy="75.07" r="1.22" fill="#4f69d2" opacity="0.76"/><circle cx="952.58" cy="63.60" r="1.35" fill="#805cc8" opacity="0.73"/><circle cx="798.43" cy="345.03" r="1.39" fill="#4f69d2" opacity="0.42"/><circle cx="912.10" cy="422.81" r="0.68" fill="#4f69d2" opacity="0.22"/><circle cx="832.62" cy="272.65" r="1.35" fill="#805cc8" opacity="0.52"/><circle cx="788.01" cy="322.53" r="1.50" fill="#4f69d2" opacity="0.56"/><circle cx="631.63" cy="138.67" r="1.22" fill="#4f69d2" opacity="0.77"/><circle cx="767.74" cy="22.31" r="0.85" fill="#805cc8" opacity="0.75"/><circle cx="863.36" cy="430.51" r="1.27" fill="#4f69d2" opacity="0.69"/><circle cx="979.01" cy="326.64" r="1.35" fill="#4f69d2" opacity="0.57"/><circle cx="722.86" cy="339.29" r="1.38" fill="#805cc8" opacity="0.29"/><circle cx="1068.65" cy="295.81" r="0.93" fill="#4f69d2" opacity="0.71"/><circle cx="1052.19" cy="272.78" r="0.70" fill="#4f69d2" opacity="0.70"/><circle cx="1022.72" cy="337.84" r="0.61" fill="#805cc8" opacity="0.27"/><circle cx="748.19" cy="371.06" r="0.69" fill="#4f69d2" opacity="0.72"/><circle cx="1074.78" cy="194.74" r="0.93" fill="#4f69d2" opacity="0.68"/><circle cx="745.72" cy="296.25" r="1.02" fill="#805cc8" opacity="0.79"/><circle cx="852.89" cy="336.70" r="1.20" fill="#4f69d2" opacity="0.70"/><circle cx="738.72" cy="360.54" r="1.49" fill="#4f69d2" opacity="0.21"/><circle cx="939.99" cy="340.14" r="1.02" fill="#805cc8" opacity="0.29"/><circle cx="571.81" cy="255.08" r="1.58" fill="#4f69d2" opacity="0.46"/><circle cx="848.70" cy="347.30" r="1.01" fill="#4f69d2" opacity="0.20"/><circle cx="939.00" cy="108.95" r="0.91" fill="#805cc8" opacity="0.43"/><circle cx="766.13" cy="350.52" r="0.72" fill="#4f69d2" opacity="0.49"/><circle cx="765.21" cy="128.19" r="0.79" fill="#4f69d2" opacity="0.70"/><circle cx="698.43" cy="407.98" r="1.38" fill="#805cc8" opacity="0.54"/><circle cx="742.96" cy="214.15" r="0.73" fill="#4f69d2" opacity="0.56"/><circle cx="729.82" cy="381.93" r="0.84" fill="#4f69d2" opacity="0.67"/><circle cx="975.55" cy="167.09" r="1.34" fill="#805cc8" opacity="0.34"/><circle cx="1039.70" cy="111.78" r="1.34" fill="#4f69d2" opacity="0.51"/><circle cx="905.46" cy="44.10" r="1.09" fill="#4f69d2" opacity="0.37"/><circle cx="1016.10" cy="364.29" r="1.03" fill="#805cc8" opacity="0.62"/><circle cx="1041.32" cy="122.16" r="0.67" fill="#4f69d2" opacity="0.68"/><circle cx="1037.73" cy="219.69" r="1.68" fill="#4f69d2" opacity="0.66"/><circle cx="986.14" cy="60.51" r="1.49" fill="#805cc8" opacity="0.63"/><circle cx="820.37" cy="26.85" r="1.50" fill="#4f69d2" opacity="0.38"/><circle cx="834.52" cy="117.60" r="0.82" fill="#4f69d2" opacity="0.37"/><circle cx="849.69" cy="292.17" r="1.21" fill="#805cc8" opacity="0.68"/><circle cx="627.89" cy="168.97" r="1.21" fill="#4f69d2" opacity="0.28"/><circle cx="568.11" cy="214.21" r="1.52" fill="#4f69d2" opacity="0.40"/><circle cx="764.48" cy="22.81" r="1.43" fill="#805cc8" opacity="0.25"/><circle cx="958.11" cy="355.64" r="1.07" fill="#4f69d2" opacity="0.38"/><circle cx="1066.38" cy="302.92" r="0.93" fill="#4f69d2" opacity="0.63"/><circle cx="935.84" cy="399.34" r="0.93" fill="#805cc8" opacity="0.76"/><circle cx="584.45" cy="281.48" r="1.68" fill="#4f69d2" opacity="0.62"/><circle cx="760.02" cy="26.19" r="1.11" fill="#4f69d2" opacity="0.21"/><circle cx="873.16" cy="428.33" r="0.79" fill="#805cc8" opacity="0.53"/><circle cx="930.38" cy="127.87" r="1.07" fill="#4f69d2" opacity="0.61"/><circle cx="938.46" cy="313.14" r="1.70" fill="#4f69d2" opacity="0.36"/><circle cx="832.97" cy="374.01" r="1.12" fill="#805cc8" opacity="0.67"/><circle cx="870.75" cy="80.59" r="1.12" fill="#4f69d2" opacity="0.63"/><circle cx="854.31" cy="227.22" r="1.36" fill="#4f69d2" opacity="0.75"/><circle cx="626.32" cy="230.13" r="1.26" fill="#805cc8" opacity="0.24"/><circle cx="619.83" cy="347.27" r="1.17" fill="#4f69d2" opacity="0.40"/><circle cx="809.68" cy="158.94" r="1.23" fill="#4f69d2" opacity="0.24"/><circle cx="711.40" cy="356.91" r="1.17" fill="#805cc8" opacity="0.33"/><circle cx="942.85" cy="151.50" r="1.42" fill="#4f69d2" opacity="0.24"/><circle cx="615.76" cy="103.39" r="1.31" fill="#4f69d2" opacity="0.69"/><circle cx="1033.76" cy="116.40" r="1.22" fill="#805cc8" opacity="0.25"/><circle cx="991.23" cy="384.00" r="0.64" fill="#4f69d2" opacity="0.61"/><circle cx="671.75" cy="218.88" r="1.28" fill="#4f69d2" opacity="0.54"/><circle cx="641.57" cy="89.64" r="1.34" fill="#805cc8" opacity="0.36"/><circle cx="756.25" cy="269.27" r="1.22" fill="#4f69d2" opacity="0.59"/><circle cx="995.27" cy="74.91" r="0.96" fill="#4f69d2" opacity="0.34"/><circle cx="735.03" cy="418.66" r="0.89" fill="#805cc8" opacity="0.53"/><circle cx="730.32" cy="38.67" r="1.21" fill="#4f69d2" opacity="0.22"/><circle cx="935.89" cy="384.81" r="0.77" fill="#4f69d2" opacity="0.59"/><circle cx="742.15" cy="56.40" r="1.60" fill="#805cc8" opacity="0.63"/><circle cx="712.52" cy="251.69" r="1.09" fill="#4f69d2" opacity="0.51"/><circle cx="845.86" cy="357.47" r="1.18" fill="#4f69d2" opacity="0.52"/><circle cx="1055.90" cy="321.19" r="1.08" fill="#805cc8" opacity="0.48"/><circle cx="881.61" cy="86.07" r="1.66" fill="#4f69d2" opacity="0.76"/><circle cx="602.80" cy="177.23" r="1.08" fill="#4f69d2" opacity="0.72"/><circle cx="590.98" cy="244.90" r="1.51" fill="#805cc8" opacity="0.56"/><circle cx="717.81" cy="329.70" r="0.89" fill="#4f69d2" opacity="0.68"/><circle cx="1002.29" cy="272.89" r="0.76" fill="#4f69d2" opacity="0.48"/><circle cx="1079.50" cy="209.82" r="1.62" fill="#805cc8" opacity="0.65"/><circle cx="1057.64" cy="148.26" r="1.65" fill="#4f69d2" opacity="0.53"/><circle cx="1026.93" cy="173.61" r="0.61" fill="#4f69d2" opacity="0.34"/><circle cx="620.95" cy="251.33" r="0.90" fill="#805cc8" opacity="0.53"/><circle cx="568.65" cy="259.21" r="1.51" fill="#4f69d2" opacity="0.51"/><circle cx="877.33" cy="194.92" r="0.65" fill="#4f69d2" opacity="0.58"/><circle cx="811.60" cy="201.72" r="0.74" fill="#805cc8" opacity="0.27"/><circle cx="971.69" cy="52.13" r="1.63" fill="#4f69d2" opacity="0.67"/><circle cx="1045.11" cy="118.10" r="1.13" fill="#4f69d2" opacity="0.24"/><circle cx="996.79" cy="78.89" r="1.10" fill="#805cc8" opacity="0.54"/><circle cx="862.10" cy="92.96" r="1.34" fill="#4f69d2" opacity="0.41"/><circle cx="754.02" cy="341.63" r="0.67" fill="#4f69d2" opacity="0.29"/><circle cx="778.97" cy="417.53" r="1.37" fill="#805cc8" opacity="0.47"/><circle cx="688.89" cy="106.72" r="1.02" fill="#4f69d2" opacity="0.68"/><circle cx="610.43" cy="336.42" r="0.76" fill="#4f69d2" opacity="0.41"/><circle cx="942.32" cy="412.08" r="1.43" fill="#805cc8" opacity="0.62"/><circle cx="907.97" cy="29.45" r="0.97" fill="#4f69d2" opacity="0.76"/><circle cx="809.82" cy="431.07" r="1.22" fill="#4f69d2" opacity="0.32"/><circle cx="845.96" cy="427.69" r="0.84" fill="#805cc8" opacity="0.77"/><circle cx="835.47" cy="67.62" r="1.20" fill="#4f69d2" opacity="0.55"/><circle cx="870.18" cy="198.68" r="1.34" fill="#4f69d2" opacity="0.42"/><circle cx="947.71" cy="49.05" r="1.44" fill="#805cc8" opacity="0.46"/><circle cx="582.30" cy="198.00" r="1.09" fill="#4f69d2" opacity="0.55"/><circle cx="954.46" cy="203.31" r="1.28" fill="#4f69d2" opacity="0.30"/><circle cx="682.35" cy="56.33" r="1.11" fill="#805cc8" opacity="0.48"/><circle cx="829.36" cy="47.70" r="0.68" fill="#4f69d2" opacity="0.63"/><circle cx="982.10" cy="323.18" r="0.67" fill="#4f69d2" opacity="0.25"/><circle cx="763.61" cy="364.09" r="0.80" fill="#805cc8" opacity="0.35"/><circle cx="964.54" cy="309.88" r="1.00" fill="#4f69d2" opacity="0.80"/><circle cx="670.08" cy="136.97" r="1.11" fill="#4f69d2" opacity="0.25"/><circle cx="714.24" cy="101.77" r="1.52" fill="#805cc8" opacity="0.74"/><circle cx="1011.35" cy="193.54" r="0.65" fill="#4f69d2" opacity="0.72"/><circle cx="983.92" cy="145.30" r="1.49" fill="#4f69d2" opacity="0.52"/><circle cx="661.02" cy="130.01" r="1.64" fill="#805cc8" opacity="0.78"/><circle cx="780.88" cy="42.17" r="0.98" fill="#4f69d2" opacity="0.40"/><circle cx="1007.43" cy="110.40" r="0.97" fill="#4f69d2" opacity="0.67"/><circle cx="794.18" cy="383.22" r="1.60" fill="#805cc8" opacity="0.70"/><circle cx="905.60" cy="307.02" r="1.07" fill="#4f69d2" opacity="0.57"/><circle cx="656.78" cy="261.17" r="1.03" fill="#4f69d2" opacity="0.26"/><circle cx="856.29" cy="27.88" r="1.65" fill="#805cc8" opacity="0.34"/><circle cx="962.76" cy="47.89" r="1.45" fill="#4f69d2" opacity="0.65"/><circle cx="762.38" cy="359.50" r="1.25" fill="#4f69d2" opacity="0.30"/><circle cx="840.82" cy="137.09" r="1.05" fill="#805cc8" opacity="0.72"/><circle cx="924.79" cy="33.64" r="0.77" fill="#4f69d2" opacity="0.26"/><circle cx="789.43" cy="413.10" r="1.16" fill="#4f69d2" opacity="0.60"/><circle cx="925.96" cy="415.63" r="1.37" fill="#805cc8" opacity="0.38"/><circle cx="1067.45" cy="195.61" r="0.71" fill="#4f69d2" opacity="0.40"/><circle cx="604.43" cy="334.77" r="1.68" fill="#4f69d2" opacity="0.68"/><circle cx="998.42" cy="373.15" r="0.87" fill="#805cc8" opacity="0.37"/><circle cx="1015.00" cy="342.97" r="1.08" fill="#4f69d2" opacity="0.23"/><circle cx="906.32" cy="107.54" r="1.22" fill="#4f69d2" opacity="0.35"/><circle cx="650.98" cy="335.02" r="1.30" fill="#805cc8" opacity="0.33"/><circle cx="752.54" cy="30.45" r="0.70" fill="#4f69d2" opacity="0.68"/><circle cx="1026.81" cy="182.10" r="1.59" fill="#4f69d2" opacity="0.67"/><circle cx="772.33" cy="246.96" r="1.42" fill="#805cc8" opacity="0.22"/><circle cx="1024.65" cy="189.25" r="1.45" fill="#4f69d2" opacity="0.27"/><circle cx="786.00" cy="332.74" r="1.56" fill="#4f69d2" opacity="0.20"/><circle cx="802.09" cy="20.94" r="1.36" fill="#805cc8" opacity="0.47"/><circle cx="810.81" cy="72.93" r="1.31" fill="#4f69d2" opacity="0.35"/><circle cx="752.03" cy="278.59" r="1.25" fill="#4f69d2" opacity="0.53"/><circle cx="838.92" cy="369.42" r="0.80" fill="#805cc8" opacity="0.56"/><circle cx="911.87" cy="391.12" r="1.17" fill="#4f69d2" opacity="0.39"/><circle cx="972.65" cy="368.10" r="0.70" fill="#4f69d2" opacity="0.29"/><circle cx="1022.34" cy="236.86" r="1.18" fill="#805cc8" opacity="0.55"/><circle cx="1046.28" cy="115.14" r="1.11" fill="#4f69d2" opacity="0.35"/><circle cx="720.13" cy="97.83" r="1.05" fill="#4f69d2" opacity="0.66"/><circle cx="759.63" cy="102.80" r="0.81" fill="#805cc8" opacity="0.71"/><circle cx="703.37" cy="158.43" r="0.95" fill="#4f69d2" opacity="0.75"/><circle cx="671.38" cy="79.05" r="1.28" fill="#4f69d2" opacity="0.69"/><circle cx="1007.24" cy="143.49" r="1.42" fill="#805cc8" opacity="0.24"/><circle cx="870.03" cy="87.85" r="1.38" fill="#4f69d2" opacity="0.30"/><circle cx="760.55" cy="385.59" r="0.63" fill="#4f69d2" opacity="0.30"/><circle cx="916.66" cy="207.75" r="1.04" fill="#805cc8" opacity="0.71"/><circle cx="938.40" cy="292.24" r="1.30" fill="#4f69d2" opacity="0.58"/><circle cx="772.49" cy="24.95" r="1.53" fill="#4f69d2" opacity="0.53"/><circle cx="829.07" cy="18.98" r="1.66" fill="#805cc8" opacity="0.58"/><circle cx="600.57" cy="309.43" r="0.87" fill="#4f69d2" opacity="0.52"/><circle cx="735.32" cy="28.08" r="1.43" fill="#4f69d2" opacity="0.23"/><circle cx="864.65" cy="311.63" r="0.98" fill="#805cc8" opacity="0.31"/><circle cx="841.08" cy="114.71" r="1.12" fill="#4f69d2" opacity="0.22"/><circle cx="986.74" cy="203.18" r="1.15" fill="#4f69d2" opacity="0.47"/><circle cx="990.49" cy="99.76" r="1.15" fill="#805cc8" opacity="0.43"/><circle cx="577.25" cy="164.49" r="0.90" fill="#4f69d2" opacity="0.37"/><circle cx="800.99" cy="128.29" r="0.62" fill="#4f69d2" opacity="0.31"/><circle cx="927.59" cy="218.62" r="1.13" fill="#805cc8" opacity="0.23"/><circle cx="596.62" cy="249.69" r="1.69" fill="#4f69d2" opacity="0.28"/><circle cx="624.99" cy="359.10" r="0.63" fill="#4f69d2" opacity="0.52"/><circle cx="1064.76" cy="162.09" r="1.14" fill="#805cc8" opacity="0.47"/><circle cx="676.60" cy="54.82" r="0.68" fill="#4f69d2" opacity="0.27"/><circle cx="874.98" cy="26.67" r="1.17" fill="#4f69d2" opacity="0.75"/><circle cx="858.88" cy="432.26" r="0.85" fill="#805cc8" opacity="0.65"/><circle cx="589.55" cy="275.66" r="1.19" fill="#4f69d2" opacity="0.24"/><circle cx="1080.07" cy="263.75" r="1.66" fill="#4f69d2" opacity="0.53"/><circle cx="578.29" cy="217.33" r="1.46" fill="#805cc8" opacity="0.42"/><circle cx="802.75" cy="57.10" r="1.26" fill="#4f69d2" opacity="0.45"/><circle cx="804.96" cy="260.07" r="1.23" fill="#4f69d2" opacity="0.51"/><circle cx="568.83" cy="235.90" r="1.08" fill="#805cc8" opacity="0.75"/><circle cx="991.90" cy="304.25" r="1.56" fill="#4f69d2" opacity="0.60"/><circle cx="740.25" cy="128.49" r="1.16" fill="#4f69d2" opacity="0.49"/><circle cx="882.26" cy="175.97" r="0.73" fill="#805cc8" opacity="0.31"/><circle cx="591.21" cy="314.54" r="1.23" fill="#4f69d2" opacity="0.31"/><circle cx="1058.31" cy="310.19" r="0.65" fill="#4f69d2" opacity="0.44"/><circle cx="812.08" cy="152.91" r="1.37" fill="#805cc8" opacity="0.46"/><circle cx="994.36" cy="240.07" r="1.20" fill="#4f69d2" opacity="0.23"/><circle cx="959.35" cy="224.95" r="0.76" fill="#4f69d2" opacity="0.34"/><text x="48" y="56" fill="#556488" font-size="13" text-anchor="start" font-weight="400">PROJECT / OPEN SOURCE</text><text x="48" y="182" font-size="74.0" fill="url(#brand)" font-weight="700">OmitLedger</text><text x="50" y="242.0" fill="#131a30" font-size="24" text-anchor="start" font-weight="400">Keep a reason for omitted work.</text><path d="M656.0 309.0L762.6 193.5L864.0 235.5L975.8 120.0" fill="none" stroke="#4f69d2" stroke-width="1.5" marker-end="url(#arrow)"/><path d="M656.0 309.0L762.6 193.5L864.0 235.5L975.8 120.0" class="flow" fill="none" stroke="#5d7385" stroke-width="2"/><circle cx="656.0" cy="309.0" r="12" fill="#5d7385" opacity=".5" filter="url(#glow)"/><circle class="pulse" cx="656.0" cy="309.0" r="3" fill="#5d7385"/><circle cx="762.6" cy="193.5" r="12" fill="#5d7385" opacity=".5" filter="url(#glow)"/><circle class="pulse" cx="762.6" cy="193.5" r="3" fill="#5d7385"/><circle cx="864.0" cy="235.5" r="12" fill="#5d7385" opacity=".5" filter="url(#glow)"/><circle class="pulse" cx="864.0" cy="235.5" r="3" fill="#5d7385"/><circle cx="975.8" cy="120.0" r="12" fill="#5d7385" opacity=".5" filter="url(#glow)"/><circle class="pulse" cx="975.8" cy="120.0" r="3" fill="#5d7385"/></svg>
